<?xml version="1.0" encoding="UTF-8"?>
<!-- Generated by Pixelmator Pro 3.7 -->
<svg width="620" height="620" viewBox="0 0 620 620" xmlns="http://www.w3.org/2000/svg">
    <path id="White-rectangle" fill="#ffffff" fill-rule="evenodd" stroke="none" d="M 0 510 L 20 503 L 20 103 L 0 110 Z"/>
    <path id="Yellow-rectangle" fill="#e5b000" fill-rule="evenodd" stroke="none" d="M 20 503 C 20 503 95.270813 479.164398 171 479 C 264.839447 478.796265 320 510 320 510 L 320 110 C 320 110 261.697784 80.083801 177 80 C 83.714058 79.907715 20 103 20 103 Z"/>
    <path id="Blue-rectangle" fill="#1364d7" fill-rule="evenodd" stroke="none" d="M 320 510 C 320 510 368.903198 538.143494 463 538 C 539.164368 537.88385 620 510 620 510 L 620 110 C 620 110 546.03125 137.867249 463 138 C 371.118683 138.146912 320 110 320 110 Z"/>
    <path id="Path" fill="none" stroke="#000000" stroke-linecap="round" stroke-linejoin="round" d="M 0 110 C 0 110 172.35022 40.797058 320 110 C 454.471497 173.026306 620 110 620 110"/>
    <path id="Path-copy" fill="none" stroke="#000000" stroke-linecap="round" stroke-linejoin="round" d="M 0 510 C 0 510 172.35022 440.797058 320 510 C 454.471497 573.026306 620 510 620 510"/>
    <path id="path1" fill="none" stroke="#000000" stroke-linecap="round" stroke-linejoin="round" d="M -0 110 L 0 510"/>
    <path id="path2" fill="none" stroke="#000000" stroke-linecap="round" stroke-linejoin="round" d="M 619 110 L 619 510"/>
    <filter id="filter1" x="0" y="0" width="620" height="620" filterUnits="userSpaceOnUse" primitiveUnits="userSpaceOnUse" color-interpolation-filters="sRGB">
        <feGaussianBlur stdDeviation="9"/>
    </filter>
    <text id="Ahoy" filter="url(#filter1)" xml:space="preserve" x="45.5" y="363" font-family="Test Feijoa Bold" font-size="200" font-weight="700" fill="#000000" letter-spacing="2">Ahoy</text>
    <filter id="filter2" x="0" y="0" width="620" height="620" filterUnits="userSpaceOnUse" primitiveUnits="userSpaceOnUse" color-interpolation-filters="sRGB">
        <feGaussianBlur stdDeviation="12"/>
        <feOffset dx="5.163102" dy="8.564017" result="offsetblur"/>
        <feFlood flood-color="#000000" flood-opacity="0.81577"/>
        <feComposite in2="offsetblur" operator="in"/>
        <feMerge>
            <feMergeNode/>
            <feMergeNode in="SourceGraphic"/>
        </feMerge>
    </filter>
    <text id="text1" filter="url(#filter2)" xml:space="preserve" x="54.5" y="363" font-family="Test Feijoa Bold" font-size="200" font-weight="700" fill="#ffffff" letter-spacing="2">Ahoy</text>
</svg>
