<?xml version="1.0" encoding="UTF-8"?>
<!-- Generated by Pixelmator Pro 3.7 -->
<svg width="620" height="461" viewBox="0 0 620 461" xmlns="http://www.w3.org/2000/svg">
    <path id="White-rectangle" fill="#ffffff" fill-rule="evenodd" stroke="none" d="M 0 432 L 20 425 L 20 25 L 0 32 Z"/>
    <path id="Yellow-rectangle" fill="#e5b000" fill-rule="evenodd" stroke="none" d="M 20 425 C 20 425 95.270813 401.164398 171 401 C 264.839447 400.796265 320 432 320 432 L 320 32 C 320 32 261.697784 2.083801 177 2 C 83.714058 1.907715 20 25 20 25 Z"/>
    <path id="Blue-rectangle" fill="#1364d7" fill-rule="evenodd" stroke="none" d="M 320 432 C 320 432 368.903198 460.143494 463 460 C 539.164368 459.88385 620 432 620 432 L 620 32 C 620 32 546.03125 59.867249 463 60 C 371.118683 60.146912 320 32 320 32 Z"/>
    <path id="Path" fill="none" stroke="#000000" stroke-linecap="round" stroke-linejoin="round" d="M 0 32 C 0 32 172.35022 -37.202942 320 32 C 454.471497 95.026306 620 32 620 32"/>
    <path id="Path-copy" fill="none" stroke="#000000" stroke-linecap="round" stroke-linejoin="round" d="M 0 432 C 0 432 172.35022 362.797058 320 432 C 454.471497 495.026306 620 432 620 432"/>
    <path id="path1" fill="none" stroke="#000000" stroke-linecap="round" stroke-linejoin="round" d="M -0 32 L 0 432"/>
    <path id="path2" fill="none" stroke="#000000" stroke-linecap="round" stroke-linejoin="round" d="M 619 32 L 619 432"/>
    <filter id="filter1" x="0" y="0" width="620" height="461" filterUnits="userSpaceOnUse" primitiveUnits="userSpaceOnUse" color-interpolation-filters="sRGB">
        <feGaussianBlur stdDeviation="9"/>
    </filter>
    <text id="Ahoy" filter="url(#filter1)" xml:space="preserve" x="45.5" y="285" font-family="Test Feijoa Bold" font-size="200" font-weight="700" fill="#000000" letter-spacing="2">Ahoy</text>
    <filter id="filter2" x="0" y="0" width="620" height="461" filterUnits="userSpaceOnUse" primitiveUnits="userSpaceOnUse" color-interpolation-filters="sRGB">
        <feGaussianBlur stdDeviation="12"/>
        <feOffset dx="5.163102" dy="8.564017" result="offsetblur"/>
        <feFlood flood-color="#000000" flood-opacity="0.81577"/>
        <feComposite in2="offsetblur" operator="in"/>
        <feMerge>
            <feMergeNode/>
            <feMergeNode in="SourceGraphic"/>
        </feMerge>
    </filter>
    <text id="text1" filter="url(#filter2)" xml:space="preserve" x="54.5" y="285" font-family="Test Feijoa Bold" font-size="200" font-weight="700" fill="#ffffff" letter-spacing="2">Ahoy</text>
</svg>
